<mxfile host="Electron" agent="Mozilla/5.0 (Windows NT 10.0; Win64; x64) AppleWebKit/537.36 (KHTML, like Gecko) draw.io/27.0.5 Chrome/134.0.6998.205 Electron/35.3.0 Safari/537.36" version="27.0.5">
  <diagram name="Page-1" id="B2YR5UgC_SVpabDqkkkl">
    <mxGraphModel dx="1226" dy="736" grid="1" gridSize="10" guides="1" tooltips="1" connect="1" arrows="1" fold="1" page="1" pageScale="1" pageWidth="850" pageHeight="1100" math="0" shadow="0">
      <root>
        <mxCell id="0" />
        <mxCell id="1" parent="0" />
        <mxCell id="wJwK0x58GU7Gpd28RuyC-1" value="" style="rounded=0;whiteSpace=wrap;html=1;" vertex="1" parent="1">
          <mxGeometry x="80" y="130" width="790" height="110" as="geometry" />
        </mxCell>
        <mxCell id="wJwK0x58GU7Gpd28RuyC-2" value="Lieferant" style="text;html=1;align=center;verticalAlign=middle;whiteSpace=wrap;rounded=0;" vertex="1" parent="1">
          <mxGeometry x="90" y="140" width="60" height="30" as="geometry" />
        </mxCell>
        <mxCell id="wJwK0x58GU7Gpd28RuyC-3" value="" style="rounded=0;whiteSpace=wrap;html=1;" vertex="1" parent="1">
          <mxGeometry x="80" y="560" width="790" height="110" as="geometry" />
        </mxCell>
        <mxCell id="wJwK0x58GU7Gpd28RuyC-4" value="" style="rounded=0;whiteSpace=wrap;html=1;" vertex="1" parent="1">
          <mxGeometry x="80" y="240" width="790" height="320" as="geometry" />
        </mxCell>
        <mxCell id="wJwK0x58GU7Gpd28RuyC-6" value="Kunde" style="text;html=1;align=center;verticalAlign=middle;whiteSpace=wrap;rounded=0;" vertex="1" parent="1">
          <mxGeometry x="90" y="570" width="60" height="30" as="geometry" />
        </mxCell>
        <mxCell id="wJwK0x58GU7Gpd28RuyC-7" value="Unternehmen" style="text;html=1;align=center;verticalAlign=middle;whiteSpace=wrap;rounded=0;" vertex="1" parent="1">
          <mxGeometry x="95" y="240" width="60" height="30" as="geometry" />
        </mxCell>
        <mxCell id="wJwK0x58GU7Gpd28RuyC-12" value="" style="edgeStyle=orthogonalEdgeStyle;rounded=0;orthogonalLoop=1;jettySize=auto;html=1;" edge="1" parent="1" target="wJwK0x58GU7Gpd28RuyC-11">
          <mxGeometry relative="1" as="geometry">
            <mxPoint x="150" y="625" as="sourcePoint" />
          </mxGeometry>
        </mxCell>
        <mxCell id="wJwK0x58GU7Gpd28RuyC-14" value="" style="edgeStyle=orthogonalEdgeStyle;rounded=0;orthogonalLoop=1;jettySize=auto;html=1;entryX=0.5;entryY=1;entryDx=0;entryDy=0;entryPerimeter=0;exitX=0.5;exitY=0;exitDx=0;exitDy=0;" edge="1" parent="1" source="wJwK0x58GU7Gpd28RuyC-11" target="wJwK0x58GU7Gpd28RuyC-16">
          <mxGeometry relative="1" as="geometry">
            <mxPoint x="260" y="792.5" as="sourcePoint" />
            <Array as="points">
              <mxPoint x="255" y="548" />
              <mxPoint x="145" y="548" />
            </Array>
          </mxGeometry>
        </mxCell>
        <mxCell id="wJwK0x58GU7Gpd28RuyC-30" value="" style="edgeStyle=orthogonalEdgeStyle;rounded=0;orthogonalLoop=1;jettySize=auto;html=1;" edge="1" parent="1" source="wJwK0x58GU7Gpd28RuyC-11" target="wJwK0x58GU7Gpd28RuyC-28">
          <mxGeometry relative="1" as="geometry" />
        </mxCell>
        <mxCell id="wJwK0x58GU7Gpd28RuyC-11" value="bestellt Artikel" style="rounded=1;whiteSpace=wrap;html=1;verticalAlign=top;labelBackgroundColor=none;" vertex="1" parent="1">
          <mxGeometry x="195" y="595" width="120" height="60" as="geometry" />
        </mxCell>
        <mxCell id="wJwK0x58GU7Gpd28RuyC-20" value="" style="edgeStyle=orthogonalEdgeStyle;rounded=0;orthogonalLoop=1;jettySize=auto;html=1;" edge="1" parent="1" source="wJwK0x58GU7Gpd28RuyC-13" target="wJwK0x58GU7Gpd28RuyC-15">
          <mxGeometry relative="1" as="geometry" />
        </mxCell>
        <mxCell id="wJwK0x58GU7Gpd28RuyC-13" value="prüft Bestellung" style="rounded=1;whiteSpace=wrap;html=1;verticalAlign=top;labelBackgroundColor=none;" vertex="1" parent="1">
          <mxGeometry x="195" y="447.5" width="120" height="60" as="geometry" />
        </mxCell>
        <mxCell id="wJwK0x58GU7Gpd28RuyC-21" style="edgeStyle=orthogonalEdgeStyle;rounded=0;orthogonalLoop=1;jettySize=auto;html=1;entryX=1;entryY=0.5;entryDx=0;entryDy=0;" edge="1" parent="1" source="wJwK0x58GU7Gpd28RuyC-15" target="wJwK0x58GU7Gpd28RuyC-23">
          <mxGeometry relative="1" as="geometry">
            <Array as="points">
              <mxPoint x="390" y="380" />
            </Array>
          </mxGeometry>
        </mxCell>
        <mxCell id="wJwK0x58GU7Gpd28RuyC-22" value="Nein" style="edgeLabel;html=1;align=center;verticalAlign=middle;resizable=0;points=[];" vertex="1" connectable="0" parent="wJwK0x58GU7Gpd28RuyC-21">
          <mxGeometry x="-0.1733" relative="1" as="geometry">
            <mxPoint as="offset" />
          </mxGeometry>
        </mxCell>
        <mxCell id="wJwK0x58GU7Gpd28RuyC-26" value="" style="edgeStyle=orthogonalEdgeStyle;rounded=0;orthogonalLoop=1;jettySize=auto;html=1;" edge="1" parent="1" source="wJwK0x58GU7Gpd28RuyC-15" target="wJwK0x58GU7Gpd28RuyC-25">
          <mxGeometry relative="1" as="geometry" />
        </mxCell>
        <mxCell id="wJwK0x58GU7Gpd28RuyC-27" value="ja" style="edgeLabel;html=1;align=center;verticalAlign=middle;resizable=0;points=[];" vertex="1" connectable="0" parent="wJwK0x58GU7Gpd28RuyC-26">
          <mxGeometry x="-0.136" relative="1" as="geometry">
            <mxPoint as="offset" />
          </mxGeometry>
        </mxCell>
        <mxCell id="wJwK0x58GU7Gpd28RuyC-15" value="waren verfügbar?" style="rhombus;whiteSpace=wrap;html=1;" vertex="1" parent="1">
          <mxGeometry x="350" y="437.5" width="80" height="80" as="geometry" />
        </mxCell>
        <mxCell id="wJwK0x58GU7Gpd28RuyC-19" value="" style="edgeStyle=orthogonalEdgeStyle;rounded=0;orthogonalLoop=1;jettySize=auto;html=1;" edge="1" parent="1" source="wJwK0x58GU7Gpd28RuyC-16" target="wJwK0x58GU7Gpd28RuyC-13">
          <mxGeometry relative="1" as="geometry" />
        </mxCell>
        <mxCell id="wJwK0x58GU7Gpd28RuyC-16" value="eingang bestellung" style="points=[[0.145,0.145,0],[0.5,0,0],[0.855,0.145,0],[1,0.5,0],[0.855,0.855,0],[0.5,1,0],[0.145,0.855,0],[0,0.5,0]];shape=mxgraph.bpmn.event;html=1;verticalLabelPosition=bottom;labelBackgroundColor=none;verticalAlign=top;align=center;perimeter=ellipsePerimeter;outlineConnect=0;aspect=fixed;outline=standard;symbol=message;" vertex="1" parent="1">
          <mxGeometry x="120" y="452.5" width="50" height="50" as="geometry" />
        </mxCell>
        <mxCell id="wJwK0x58GU7Gpd28RuyC-34" value="" style="edgeStyle=orthogonalEdgeStyle;rounded=0;orthogonalLoop=1;jettySize=auto;html=1;" edge="1" parent="1" source="wJwK0x58GU7Gpd28RuyC-18" target="wJwK0x58GU7Gpd28RuyC-33">
          <mxGeometry relative="1" as="geometry" />
        </mxCell>
        <mxCell id="wJwK0x58GU7Gpd28RuyC-18" value="eingang bestellung" style="points=[[0.145,0.145,0],[0.5,0,0],[0.855,0.145,0],[1,0.5,0],[0.855,0.855,0],[0.5,1,0],[0.145,0.855,0],[0,0.5,0]];shape=mxgraph.bpmn.event;html=1;verticalLabelPosition=bottom;labelBackgroundColor=none;verticalAlign=top;align=center;perimeter=ellipsePerimeter;outlineConnect=0;aspect=fixed;outline=standard;symbol=message;" vertex="1" parent="1">
          <mxGeometry x="195" y="160" width="50" height="50" as="geometry" />
        </mxCell>
        <mxCell id="wJwK0x58GU7Gpd28RuyC-24" style="edgeStyle=orthogonalEdgeStyle;rounded=0;orthogonalLoop=1;jettySize=auto;html=1;exitX=0;exitY=0.5;exitDx=0;exitDy=0;entryX=0;entryY=0.5;entryDx=0;entryDy=0;entryPerimeter=0;" edge="1" parent="1" source="wJwK0x58GU7Gpd28RuyC-23" target="wJwK0x58GU7Gpd28RuyC-18">
          <mxGeometry relative="1" as="geometry">
            <mxPoint x="185" y="380.0000000000001" as="sourcePoint" />
            <mxPoint x="185.50510257216825" y="190" as="targetPoint" />
            <Array as="points">
              <mxPoint x="60" y="380" />
              <mxPoint x="60" y="185" />
            </Array>
          </mxGeometry>
        </mxCell>
        <mxCell id="wJwK0x58GU7Gpd28RuyC-23" value="bestellt Artikel" style="rounded=1;whiteSpace=wrap;html=1;verticalAlign=top;labelBackgroundColor=none;" vertex="1" parent="1">
          <mxGeometry x="195" y="350" width="120" height="60" as="geometry" />
        </mxCell>
        <mxCell id="wJwK0x58GU7Gpd28RuyC-32" style="edgeStyle=orthogonalEdgeStyle;rounded=0;orthogonalLoop=1;jettySize=auto;html=1;entryX=0.5;entryY=0;entryDx=0;entryDy=0;" edge="1" parent="1" source="wJwK0x58GU7Gpd28RuyC-25" target="wJwK0x58GU7Gpd28RuyC-28">
          <mxGeometry relative="1" as="geometry" />
        </mxCell>
        <mxCell id="wJwK0x58GU7Gpd28RuyC-25" value="liefert Artikel" style="rounded=1;whiteSpace=wrap;html=1;verticalAlign=top;labelBackgroundColor=none;" vertex="1" parent="1">
          <mxGeometry x="460" y="447.5" width="120" height="60" as="geometry" />
        </mxCell>
        <mxCell id="wJwK0x58GU7Gpd28RuyC-31" value="" style="edgeStyle=orthogonalEdgeStyle;rounded=0;orthogonalLoop=1;jettySize=auto;html=1;" edge="1" parent="1" source="wJwK0x58GU7Gpd28RuyC-28" target="wJwK0x58GU7Gpd28RuyC-29">
          <mxGeometry relative="1" as="geometry" />
        </mxCell>
        <mxCell id="wJwK0x58GU7Gpd28RuyC-28" value="erhält artikel" style="rounded=1;whiteSpace=wrap;html=1;verticalAlign=top;labelBackgroundColor=none;" vertex="1" parent="1">
          <mxGeometry x="350" y="595" width="120" height="60" as="geometry" />
        </mxCell>
        <mxCell id="wJwK0x58GU7Gpd28RuyC-43" style="edgeStyle=orthogonalEdgeStyle;rounded=0;orthogonalLoop=1;jettySize=auto;html=1;entryX=0;entryY=0.5;entryDx=0;entryDy=0;" edge="1" parent="1" source="wJwK0x58GU7Gpd28RuyC-29" target="wJwK0x58GU7Gpd28RuyC-37">
          <mxGeometry relative="1" as="geometry" />
        </mxCell>
        <mxCell id="wJwK0x58GU7Gpd28RuyC-29" value="bezahlt Rechnung" style="rounded=1;whiteSpace=wrap;html=1;verticalAlign=top;labelBackgroundColor=none;" vertex="1" parent="1">
          <mxGeometry x="510" y="595" width="120" height="60" as="geometry" />
        </mxCell>
        <mxCell id="wJwK0x58GU7Gpd28RuyC-33" value="liefert Artikel" style="rounded=1;whiteSpace=wrap;html=1;verticalAlign=top;labelBackgroundColor=none;" vertex="1" parent="1">
          <mxGeometry x="305" y="155" width="120" height="60" as="geometry" />
        </mxCell>
        <mxCell id="wJwK0x58GU7Gpd28RuyC-35" style="edgeStyle=orthogonalEdgeStyle;rounded=0;orthogonalLoop=1;jettySize=auto;html=1;entryX=0.5;entryY=0;entryDx=0;entryDy=0;" edge="1" parent="1" source="wJwK0x58GU7Gpd28RuyC-33" target="wJwK0x58GU7Gpd28RuyC-39">
          <mxGeometry relative="1" as="geometry" />
        </mxCell>
        <mxCell id="wJwK0x58GU7Gpd28RuyC-41" style="edgeStyle=orthogonalEdgeStyle;rounded=0;orthogonalLoop=1;jettySize=auto;html=1;" edge="1" parent="1" source="wJwK0x58GU7Gpd28RuyC-36" target="wJwK0x58GU7Gpd28RuyC-29">
          <mxGeometry relative="1" as="geometry">
            <Array as="points">
              <mxPoint x="660" y="550" />
              <mxPoint x="570" y="550" />
            </Array>
          </mxGeometry>
        </mxCell>
        <mxCell id="wJwK0x58GU7Gpd28RuyC-50" value="" style="edgeStyle=orthogonalEdgeStyle;rounded=0;orthogonalLoop=1;jettySize=auto;html=1;entryX=0.5;entryY=1;entryDx=0;entryDy=0;" edge="1" parent="1" source="wJwK0x58GU7Gpd28RuyC-36" target="wJwK0x58GU7Gpd28RuyC-44">
          <mxGeometry relative="1" as="geometry">
            <Array as="points">
              <mxPoint x="660" y="420" />
              <mxPoint x="660" y="420" />
            </Array>
          </mxGeometry>
        </mxCell>
        <mxCell id="wJwK0x58GU7Gpd28RuyC-36" value="erstellt Rechnung" style="rounded=1;whiteSpace=wrap;html=1;verticalAlign=top;labelBackgroundColor=none;" vertex="1" parent="1">
          <mxGeometry x="600" y="447.5" width="120" height="60" as="geometry" />
        </mxCell>
        <mxCell id="wJwK0x58GU7Gpd28RuyC-37" value="" style="ellipse;shape=doubleEllipse;html=1;dashed=0;whiteSpace=wrap;aspect=fixed;" vertex="1" parent="1">
          <mxGeometry x="770" y="605" width="40" height="40" as="geometry" />
        </mxCell>
        <mxCell id="wJwK0x58GU7Gpd28RuyC-38" value="" style="points=[[0.25,0.25,0],[0.5,0,0],[0.75,0.25,0],[1,0.5,0],[0.75,0.75,0],[0.5,1,0],[0.25,0.75,0],[0,0.5,0]];shape=mxgraph.bpmn.gateway2;html=1;verticalLabelPosition=bottom;labelBackgroundColor=#ffffff;verticalAlign=top;align=center;perimeter=rhombusPerimeter;outlineConnect=0;outline=standard;symbol=general;" vertex="1" parent="1">
          <mxGeometry x="100" y="600" width="50" height="50" as="geometry" />
        </mxCell>
        <mxCell id="wJwK0x58GU7Gpd28RuyC-40" value="" style="edgeStyle=orthogonalEdgeStyle;rounded=0;orthogonalLoop=1;jettySize=auto;html=1;" edge="1" parent="1" source="wJwK0x58GU7Gpd28RuyC-39" target="wJwK0x58GU7Gpd28RuyC-25">
          <mxGeometry relative="1" as="geometry" />
        </mxCell>
        <mxCell id="wJwK0x58GU7Gpd28RuyC-39" value="erhält artikel" style="rounded=1;whiteSpace=wrap;html=1;verticalAlign=top;labelBackgroundColor=none;" vertex="1" parent="1">
          <mxGeometry x="195" y="270" width="120" height="60" as="geometry" />
        </mxCell>
        <mxCell id="wJwK0x58GU7Gpd28RuyC-51" style="edgeStyle=orthogonalEdgeStyle;rounded=0;orthogonalLoop=1;jettySize=auto;html=1;" edge="1" parent="1" source="wJwK0x58GU7Gpd28RuyC-42" target="wJwK0x58GU7Gpd28RuyC-29">
          <mxGeometry relative="1" as="geometry">
            <Array as="points">
              <mxPoint x="800" y="550" />
              <mxPoint x="570" y="550" />
            </Array>
          </mxGeometry>
        </mxCell>
        <mxCell id="wJwK0x58GU7Gpd28RuyC-42" value="erstellt Mahnung" style="rounded=1;whiteSpace=wrap;html=1;verticalAlign=top;labelBackgroundColor=none;" vertex="1" parent="1">
          <mxGeometry x="740" y="447.5" width="120" height="60" as="geometry" />
        </mxCell>
        <mxCell id="wJwK0x58GU7Gpd28RuyC-45" value="" style="edgeStyle=orthogonalEdgeStyle;rounded=0;orthogonalLoop=1;jettySize=auto;html=1;" edge="1" parent="1" source="wJwK0x58GU7Gpd28RuyC-44" target="wJwK0x58GU7Gpd28RuyC-42">
          <mxGeometry relative="1" as="geometry" />
        </mxCell>
        <mxCell id="wJwK0x58GU7Gpd28RuyC-46" value="Nein" style="edgeLabel;html=1;align=center;verticalAlign=middle;resizable=0;points=[];" vertex="1" connectable="0" parent="wJwK0x58GU7Gpd28RuyC-45">
          <mxGeometry x="-0.0278" relative="1" as="geometry">
            <mxPoint as="offset" />
          </mxGeometry>
        </mxCell>
        <mxCell id="wJwK0x58GU7Gpd28RuyC-44" value="rechunung bezahlt?" style="rhombus;whiteSpace=wrap;html=1;" vertex="1" parent="1">
          <mxGeometry x="620" y="330" width="80" height="80" as="geometry" />
        </mxCell>
      </root>
    </mxGraphModel>
  </diagram>
</mxfile>
